<?xml version="1.0" encoding="UTF-8"?>
<svg width="16px" height="19px" viewBox="0 0 16 19" version="1.1" xmlns="http://www.w3.org/2000/svg" xmlns:xlink="http://www.w3.org/1999/xlink">
    <!-- Generator: sketchtool 63.1 (101010) - https://sketch.com -->
    <title>6C3FD359-2963-4AAD-A8DA-E0E8968110BA</title>
    <desc>Created with sketchtool.</desc>
    <g id="Icons" stroke="none" stroke-width="1" fill="none" fill-rule="evenodd">
        <g id="All-Icons" transform="translate(-250.000000, -412.000000)">
            <g id="Project-Library" transform="translate(248.000000, 412.000000)">
                <polygon id="Path" points="0 0 20 0 20 20 0 20"></polygon>
                <path d="M10,7.5 C11.8416667,7.5 13.3333333,6.00833333 13.3333333,4.16666667 C13.3333333,2.325 11.8416667,0.833333333 10,0.833333333 C8.15833333,0.833333333 6.66666667,2.325 6.66666667,4.16666667 C6.66666667,6.00833333 8.15833333,7.5 10,7.5 Z M10,2.5 C10.9166667,2.5 11.6666667,3.25 11.6666667,4.16666667 C11.6666667,5.08333333 10.9166667,5.83333333 10,5.83333333 C9.08333333,5.83333333 8.33333333,5.08333333 8.33333333,4.16666667 C8.33333333,3.25 9.08333333,2.5 10,2.5 Z M10,9.625 C8.03333333,7.79166667 5.4,6.66666667 2.5,6.66666667 L2.5,15.8333333 C5.4,15.8333333 8.03333333,16.9583333 10,18.7916667 C11.9666667,16.9666667 14.6,15.8333333 17.5,15.8333333 L17.5,6.66666667 C14.6,6.66666667 11.9666667,7.79166667 10,9.625 Z M15.8333333,14.275 C13.725,14.5583333 11.725,15.3583333 10,16.625 C8.28333333,15.3583333 6.275,14.55 4.16666667,14.2666667 L4.16666667,8.475 C5.91666667,8.79166667 7.54166667,9.6 8.86666667,10.8333333 L10,11.9 L11.1333333,10.8416667 C12.4583333,9.60833333 14.0833333,8.8 15.8333333,8.48333333 L15.8333333,14.275 L15.8333333,14.275 Z" id="Shape" fill="#3E4551" fill-rule="nonzero"></path>
            </g>
        </g>
    </g>
</svg>