<?xml version="1.0" encoding="UTF-8"?>
<svg width="15px" height="18px" viewBox="0 0 15 18" version="1.1" xmlns="http://www.w3.org/2000/svg" xmlns:xlink="http://www.w3.org/1999/xlink">
    <!-- Generator: Sketch 64 (93537) - https://sketch.com -->
    <title>Sitebook-lib-black</title>
    <desc>Created with Sketch.</desc>
    <g id="New-Logo" stroke="none" stroke-width="1" fill="none" fill-rule="evenodd">
        <g id="Sitebook-lib-black" transform="translate(-4.000000, -3.000000)">
            <rect id="Rectangle" x="0" y="0" width="24" height="24"></rect>
            <g id="Group-100" transform="translate(4.000000, 3.000000)" fill="#3E4551">
                <path d="M11.9237,-1.50467873e-14 L11.9237,13.1960138 L3.49625882,13.1960138 C1.87157132,13.1960138 1.05922757,13.844667 1.05922757,15.1419734 C1.05922757,16.4392799 1.87157132,17.0579401 3.49625882,16.9979542 L11.9237,16.9979542 L13.4079059,16.9979542 L13.4079059,2.70298607 L14.3458929,2.70298607 L14.3458929,17.9323401 L3.23155293,17.9323401 C2.52248793,17.8514171 1.9948273,17.7138362 1.64857106,17.5195974 C1.11562339,17.2206306 0.593495394,16.7878045 0.386632172,16.3399544 C-1.4294448e-13,15.5026829 -1.4294448e-13,14.4381994 -1.4294448e-13,13.1960138 C-1.4294448e-13,10.3761168 -1.4294448e-13,6.69586309 -1.4294448e-13,2.15525259 C-0.00158356394,1.59734238 0.159116821,1.12169621 0.482101154,0.728314077 C0.805085488,0.334931947 1.23424589,0.0921605877 1.76958235,-1.50467873e-14 L11.9237,-1.50467873e-14 Z" id="Path-45"></path>
                <path d="M3.04414117,14.8235294 L12.1764941,14.8235294 L12.1764941,14.8235294 L12.1764941,15.6176471 L3.04414117,15.6176471 C2.82485164,15.6176471 2.64708235,15.4398778 2.64708235,15.2205882 C2.64708235,15.0012987 2.82485164,14.8235294 3.04414117,14.8235294 Z" id="Rectangle"></path>
            </g>
        </g>
    </g>
</svg>