<?xml version="1.0" encoding="UTF-8"?>
<svg width="18px" height="20px" viewBox="0 0 18 20" version="1.1" xmlns="http://www.w3.org/2000/svg" xmlns:xlink="http://www.w3.org/1999/xlink">
    <!-- Generator: sketchtool 64 (101010) - https://sketch.com -->
    <title>4AA3A8C1-4C02-4299-A945-0743A4A21F53</title>
    <desc>Created with sketchtool.</desc>
    <g id="Page-1" stroke="none" stroke-width="1" fill="none" fill-rule="evenodd">
        <g id="Quotes---All" transform="translate(-171.000000, -1120.000000)">
            <g id="Group-13" transform="translate(0.000000, 1110.000000)">
                <g id="Group-23" transform="translate(157.000000, 8.000000)">
                    <g id="invoices" transform="translate(11.000000, 0.000000)">
                        <polygon id="Path" points="0 0 24 0 24 24 0 24"></polygon>
                        <g id="Group" transform="translate(3.000000, 2.000000)" fill="#3E4551" fill-rule="nonzero">
                            <path d="M16.5,1.5 L15,0 L13.5,1.5 L12,0 L10.5,1.5 L9,0 L7.5,1.5 L6,0 L4.5,1.5 L3,0 L3,14 L0,14 L0,17 C0,18.66 1.34,20 3,20 L15,20 C16.66,20 18,18.66 18,17 L18,0 L16.5,1.5 Z M12,18 L3,18 C2.45,18 2,17.55 2,17 L2,16 L12,16 L12,18 Z M16,17 C16,17.55 15.55,18 15,18 C14.45,18 14,17.55 14,17 L14,14 L5,14 L5,3 L16,3 L16,17 Z" id="Shape"></path>
                            <rect id="Rectangle" x="6" y="5" width="6" height="2"></rect>
                            <rect id="Rectangle" x="13" y="5" width="2" height="2"></rect>
                            <rect id="Rectangle" x="6" y="8" width="6" height="2"></rect>
                            <rect id="Rectangle" x="13" y="8" width="2" height="2"></rect>
                        </g>
                    </g>
                </g>
            </g>
        </g>
    </g>
</svg>