<?xml version="1.0" encoding="UTF-8"?>
<svg width="22px" height="16px" viewBox="0 0 22 16" version="1.1" xmlns="http://www.w3.org/2000/svg" xmlns:xlink="http://www.w3.org/1999/xlink">
    <!-- Generator: sketchtool 64 (101010) - https://sketch.com -->
    <title>FC62F63C-E0F8-4A7A-9A6F-4BAD39A31FDB</title>
    <desc>Created with sketchtool.</desc>
    <g id="Page-1" stroke="none" stroke-width="1" fill="none" fill-rule="evenodd">
        <g id="Payments" transform="translate(-260.000000, -1013.000000)">
            <g id="Group" transform="translate(0.000000, 1001.000000)">
                <g id="Group-22" transform="translate(240.000000, 8.000000)">
                    <g id="payments" transform="translate(19.000000, 0.000000)">
                        <rect id="Rectangle" x="0" y="0" width="24" height="24"></rect>
                        <path d="M19,14 L19,6 C19,4.9 18.1,4 17,4 L3,4 C1.9,4 1,4.9 1,6 L1,14 C1,15.1 1.9,16 3,16 L17,16 C18.1,16 19,15.1 19,14 Z M17,14 L3,14 L3,6 L17,6 L17,14 Z M10,7 C8.34,7 7,8.34 7,10 C7,11.66 8.34,13 10,13 C11.66,13 13,11.66 13,10 C13,8.34 11.66,7 10,7 Z M23,7 L23,18 C23,19.1 22.1,20 21,20 L4,20 L4,18 L21,18 L21,7 L23,7 Z" id="Shape" fill="#007BFF" fill-rule="nonzero"></path>
                    </g>
                </g>
            </g>
        </g>
    </g>
</svg>