<?xml version="1.0" encoding="UTF-8"?>
<svg width="16px" height="20px" viewBox="0 0 16 20" version="1.1" xmlns="http://www.w3.org/2000/svg" xmlns:xlink="http://www.w3.org/1999/xlink">
    <!-- Generator: sketchtool 64 (101010) - https://sketch.com -->
    <title>A21C8AC6-51D6-4B0A-B95F-6BD0121BCF3A</title>
    <desc>Created with sketchtool.</desc>
    <g id="Page-1" stroke="none" stroke-width="1" fill="none" fill-rule="evenodd">
        <g id="Quotes---All" transform="translate(-53.000000, -1120.000000)">
            <g id="Group-13" transform="translate(0.000000, 1110.000000)">
                <g id="Group-24" transform="translate(26.000000, 8.000000)">
                    <g id="quotes-copy" transform="translate(23.000000, 0.000000)">
                        <rect id="Rectangle" x="0" y="0" width="24" height="24"></rect>
                        <path d="M14,2 L6,2 C4.9,2 4,2.9 4,4 L4,20 C4,21.1 4.9,22 6,22 L18,22 C19.1,22 20,21.1 20,20 L20,8 L14,2 Z M6,20 L6,4 L13,4 L13,8 L18,8 L18,20 L6,20 Z M11,19 L13,19 L13,18 L14,18 C14.55,18 15,17.55 15,17 L15,14 C15,13.45 14.55,13 14,13 L11,13 L11,12 L15,12 L15,10 L13,10 L13,9 L11,9 L11,10 L10,10 C9.45,10 9,10.45 9,11 L9,14 C9,14.55 9.45,15 10,15 L13,15 L13,16 L9,16 L9,18 L11,18 L11,19 Z" id="Shape" fill="#007BFF" fill-rule="nonzero"></path>
                    </g>
                </g>
            </g>
        </g>
    </g>
</svg>