<?xml version="1.0" encoding="UTF-8"?>
<svg width="16px" height="16px" viewBox="0 0 16 16" version="1.1" xmlns="http://www.w3.org/2000/svg" xmlns:xlink="http://www.w3.org/1999/xlink">
    <!-- Generator: sketchtool 63.1 (101010) - https://sketch.com -->
    <title>BB7DE8B0-4201-4CD9-A606-16AE049241C6</title>
    <desc>Created with sketchtool.</desc>
    <g id="Icons" stroke="none" stroke-width="1" fill="none" fill-rule="evenodd">
        <g id="All-Icons" transform="translate(-166.000000, -414.000000)">
            <g id="Reports" transform="translate(164.000000, 412.000000)">
                <polygon id="Path" points="0 0 20 0 20 20 0 20"></polygon>
                <path d="M15.8333333,2.5 L4.16666667,2.5 C3.25,2.5 2.5,3.25 2.5,4.16666667 L2.5,15.8333333 C2.5,16.75 3.25,17.5 4.16666667,17.5 L15.8333333,17.5 C16.75,17.5 17.5,16.75 17.5,15.8333333 L17.5,4.16666667 C17.5,3.25 16.75,2.5 15.8333333,2.5 Z M15.8333333,15.8333333 L4.16666667,15.8333333 L4.16666667,4.16666667 L15.8333333,4.16666667 L15.8333333,15.8333333 Z M5.83333333,8.33333333 L7.5,8.33333333 L7.5,14.1666667 L5.83333333,14.1666667 L5.83333333,8.33333333 Z M9.16666667,5.83333333 L10.8333333,5.83333333 L10.8333333,14.1666667 L9.16666667,14.1666667 L9.16666667,5.83333333 Z M12.5,10.8333333 L14.1666667,10.8333333 L14.1666667,14.1666667 L12.5,14.1666667 L12.5,10.8333333 Z" id="Shape" fill="#3E4551" fill-rule="nonzero"></path>
            </g>
        </g>
    </g>
</svg>