<svg _ngcontent-wdp-c255="" width="20px" height="20px" viewBox="0 0 11 11" xmlns="http://www.w3.org/2000/svg" class="btn-icon"><g _ngcontent-wdp-c255="" id="Icons" stroke="none" stroke-width="1" fill="none" fill-rule="evenodd"><g _ngcontent-wdp-c255="" id="All-Icons" transform="translate(-970.000000, -456.000000)" fill="#007BFF" stroke="#007BFF" stroke-width="0.4"><path _ngcontent-wdp-c255="" d="M975.848485,457 C976.205518,457 976.49495,457.289432 976.49495,457.646465 L976.494,461.202 L980.050505,461.20202 C980.407538,461.20202 980.69697,461.491452 980.69697,461.848485 C980.69697,462.205518 980.407538,462.49495 980.050505,462.49495 L976.494,462.494 L976.49495,466.050505 C976.49495,466.407538 976.205518,466.69697 975.848485,466.69697 C975.491452,466.69697 975.20202,466.407538 975.20202,466.050505 L975.202,462.494 L971.646465,462.49495 C971.289432,462.49495 971,462.205518 971,461.848485 C971,461.491452 971.289432,461.20202 971.646465,461.20202 L975.202,461.202 L975.20202,457.646465 C975.20202,457.289432 975.491452,457 975.848485,457 Z" id="Combined-Shape-Copy"/></g></g></svg>